<svg xmlns="http://www.w3.org/2000/svg" viewBox="-22.2 0 130.12 130.12">
  <rect x="-22.2" y="0" width="130.12" height="130.12" fill="#f7f4ed"/>
  <path fill="#721420" d="M42.85,0L0,11.46l2.91,5.04L42.85,5.71l39.95,10.79,2.92-5.06L42.85,0ZM50.74,120h5.39V46.03l5.15,1.37v62.6h5.39V23.69l-15.93-4.26v100.57ZM56.13,25.82l5.15,1.4v14.99l-5.15-1.37v-15.01ZM19.11,110h5.39v-62.43l5.15-1.37v73.79h5.39V19.43l-15.93,4.25v86.32ZM24.5,27.32l5.15-1.4v14.99l-5.15,1.37v-14.96ZM77.21,16.86l-1.04-.28-.69-.19h0S42.89,7.7,42.89,7.7L8.57,16.86l-.59.16h0s-4.12,1.1-4.12,1.1l1.85,3.16h0c.46.8,1.32,1.35,2.31,1.35.19,0,.37-.03.55-.06v75.17h5.39V21.13s26.24-7.04,26.24-7.04v116.04h5.39V14.18l26.24,7.03v76.52h5.39V22.66c.18.04.36.06.54.06.96,0,1.8-.52,2.25-1.29l1.86-3.32-4.65-1.25h0Z"/>
</svg>
